<svg xmlns="http://www.w3.org/2000/svg" xmlns:xlink="http://www.w3.org/1999/xlink" width="500" zoomAndPan="magnify" viewBox="0 0 375 374.999991" height="500" preserveAspectRatio="xMidYMid meet" version="1.0"><defs><g/><clipPath id="7d62d81a4e"><rect x="0" width="108" y="0" height="355"/></clipPath><clipPath id="ed62efa03a"><rect x="0" width="136" y="0" height="375"/></clipPath></defs><g transform="matrix(1, 0, 0, 1, 189, 9)"><g clip-path="url(#7d62d81a4e)"><g fill="#3f327e" fill-opacity="1"><g transform="translate(47.231907, 2.199594)"><g><path d="M 32.046875 14.640625 L 31.140625 26.9375 L 23 26.34375 L 23.90625 14.046875 L 7.234375 12.8125 L 6.09375 28.265625 L -2.046875 27.65625 L -0.234375 3.25 L 56.71875 7.46875 L 54.90625 31.875 L 46.765625 31.28125 L 47.90625 15.828125 Z M 32.046875 14.640625 "/></g></g></g><g fill="#3f327e" fill-opacity="1"><g transform="translate(45.012381, 32.143513)"><g/></g></g><g fill="#3f327e" fill-opacity="1"><g transform="translate(44.077668, 44.753855)"><g/></g></g><g fill="#3f327e" fill-opacity="1"><g transform="translate(43.142954, 57.364197)"><g/></g></g><g fill="#3f327e" fill-opacity="1"><g transform="translate(42.207539, 69.984009)"><g><path d="M -1.625 21.96875 C -1.226562 21.882812 -0.863281 21.796875 -0.53125 21.703125 C -0.207031 21.617188 0.195312 21.554688 0.6875 21.515625 C 1.175781 21.472656 1.800781 21.460938 2.5625 21.484375 C 3.332031 21.515625 4.289062 21.570312 5.4375 21.65625 L 14.375 22.328125 C 17.03125 22.523438 18.9375 22.203125 20.09375 21.359375 C 21.25 20.523438 21.898438 19.078125 22.046875 17.015625 L 22.28125 13.921875 L -0.90625 12.203125 L -0.234375 3.25 L 56.71875 7.46875 L 55.703125 20.984375 C 55.359375 25.648438 54.023438 28.945312 51.703125 30.875 C 49.378906 32.800781 46.019531 33.601562 41.625 33.28125 L 37.15625 32.953125 C 31.300781 32.515625 27.59375 30.273438 26.03125 26.234375 C 24.9375 28.429688 23.3125 29.875 21.15625 30.5625 C 19.007812 31.257812 16.445312 31.5 13.46875 31.28125 L 4.6875 30.625 C 3.269531 30.519531 2.03125 30.484375 0.96875 30.515625 C -0.09375 30.546875 -1.179688 30.734375 -2.296875 31.078125 Z M 47.90625 15.828125 L 30.40625 14.53125 L 30.140625 18.03125 C 30.023438 19.71875 30.363281 21.0625 31.15625 22.0625 C 31.957031 23.070312 33.492188 23.660156 35.765625 23.828125 L 41.390625 24.25 C 43.453125 24.394531 44.96875 24.140625 45.9375 23.484375 C 46.914062 22.828125 47.46875 21.710938 47.59375 20.140625 Z M 47.90625 15.828125 "/></g></g></g><g fill="#3f327e" fill-opacity="1"><g transform="translate(39.782519, 102.70027)"><g/></g></g><g fill="#3f327e" fill-opacity="1"><g transform="translate(38.847806, 115.310612)"><g/></g></g><g fill="#3f327e" fill-opacity="1"><g transform="translate(37.913092, 127.920954)"><g/></g></g><g fill="#3f327e" fill-opacity="1"><g transform="translate(36.977677, 140.540766)"><g><path d="M 56.71875 7.46875 L 56.046875 16.421875 L -0.90625 12.203125 L -0.234375 3.25 Z M 56.71875 7.46875 "/></g></g></g><g fill="#3f327e" fill-opacity="1"><g transform="translate(35.831392, 156.005444)"><g/></g></g><g fill="#3f327e" fill-opacity="1"><g transform="translate(34.896679, 168.615786)"><g/></g></g><g fill="#3f327e" fill-opacity="1"><g transform="translate(33.961965, 181.226128)"><g/></g></g><g fill="#3f327e" fill-opacity="1"><g transform="translate(33.02655, 193.84594)"><g><path d="M 56.890625 5.03125 L 54.84375 32.6875 L 46.703125 32.09375 L 47.390625 22.75 L -1.421875 19.125 L -0.75 10.171875 L 48.0625 13.796875 L 48.75 4.4375 Z M 56.890625 5.03125 "/></g></g></g><g fill="#3f327e" fill-opacity="1"><g transform="translate(30.854745, 223.146046)"><g/></g></g><g fill="#3f327e" fill-opacity="1"><g transform="translate(29.920032, 235.756388)"><g/></g></g><g fill="#3f327e" fill-opacity="1"><g transform="translate(28.985318, 248.36673)"><g/></g></g><g fill="#3f327e" fill-opacity="1"><g transform="translate(28.049903, 260.986541)"><g><path d="M -2.390625 32.21875 L -1.71875 23.1875 L 8.71875 22.40625 L 9.53125 11.421875 L -0.671875 9.109375 L -0.0625 0.890625 L 56.21875 14.21875 L 55.234375 27.328125 Z M 17.1875 13.140625 L 16.546875 21.75 L 45.671875 19.578125 Z M 17.1875 13.140625 "/></g></g></g><g fill="#3f327e" fill-opacity="1"><g transform="translate(25.594692, 294.110109)"><g/></g></g><g fill="#3f327e" fill-opacity="1"><g transform="translate(24.659979, 306.720451)"><g/></g></g><g fill="#3f327e" fill-opacity="1"><g transform="translate(23.724798, 319.337106)"><g><path d="M 43.125 5.328125 C 47.726562 5.671875 51.179688 7.03125 53.484375 9.40625 C 55.796875 11.78125 56.785156 15.164062 56.453125 19.5625 C 56.128906 23.945312 54.648438 27.144531 52.015625 29.15625 C 49.390625 31.175781 45.773438 32.015625 41.171875 31.671875 L 38.984375 31.515625 L 39.609375 23.046875 L 42.359375 23.25 C 44.429688 23.40625 45.910156 23.125 46.796875 22.40625 C 47.691406 21.6875 48.191406 20.617188 48.296875 19.203125 C 48.398438 17.796875 48.066406 16.664062 47.296875 15.8125 C 46.523438 14.96875 45.101562 14.46875 43.03125 14.3125 C 41.082031 14.164062 39.328125 14.472656 37.765625 15.234375 C 36.210938 15.992188 34.722656 16.972656 33.296875 18.171875 C 31.867188 19.378906 30.429688 20.675781 28.984375 22.0625 C 27.546875 23.457031 25.992188 24.742188 24.328125 25.921875 C 22.671875 27.109375 20.804688 28.0625 18.734375 28.78125 C 16.660156 29.507812 14.269531 29.773438 11.5625 29.578125 C 6.945312 29.234375 3.488281 27.84375 1.1875 25.40625 C -1.113281 22.96875 -2.101562 19.550781 -1.78125 15.15625 C -1.457031 10.757812 0.0195312 7.53125 2.65625 5.46875 C 5.289062 3.40625 8.914062 2.546875 13.53125 2.890625 L 17.4375 3.171875 L 16.8125 11.625 L 12.34375 11.296875 C 10.269531 11.140625 8.796875 11.453125 7.921875 12.234375 C 7.054688 13.023438 6.570312 14.125 6.46875 15.53125 C 6.363281 16.9375 6.679688 18.085938 7.421875 18.984375 C 8.171875 19.890625 9.582031 20.421875 11.65625 20.578125 C 13.601562 20.722656 15.351562 20.414062 16.90625 19.65625 C 18.457031 18.894531 19.945312 17.914062 21.375 16.71875 C 22.8125 15.519531 24.242188 14.21875 25.671875 12.8125 C 27.109375 11.414062 28.660156 10.125 30.328125 8.9375 C 32.003906 7.757812 33.878906 6.8125 35.953125 6.09375 C 38.023438 5.382812 40.414062 5.128906 43.125 5.328125 Z M 43.125 5.328125 "/></g></g></g></g></g><g transform="matrix(1, 0, 0, 1, 92, 0)"><g clip-path="url(#ed62efa03a)"><g fill="#3f327e" fill-opacity="1"><g transform="translate(0.441051, 362.216115)"><g><path d="M 89.53125 -356.0625 L 126.15625 -356.0625 L 94.609375 0 L 39.171875 0 L 7.625 -356.0625 L 44.25 -356.0625 L 67.140625 -103.265625 Z M 89.53125 -356.0625 "/></g></g></g></g></g></svg>